<?xml version="1.0" encoding="UTF-8"?>
<svg id="Warstwa_2" data-name="Warstwa 2" xmlns="http://www.w3.org/2000/svg" viewBox="0 0 56.5 56.5">
  <defs>
    <style>
      .cls-1 {
        stroke: #1d1d1b;
        stroke-miterlimit: 10;
        stroke-width: .5px;
      }

      .cls-1, .cls-2 {
        fill: #f2f2f2;
      }

      .cls-3 {
        fill: #467261;
      }

      .cls-4 {
        fill: #2a4848;
      }

      .cls-2 {
        stroke: #393736;
        stroke-linecap: round;
        stroke-linejoin: round;
        stroke-width: 2px;
      }
    </style>
  </defs>
  <g id="Warstwa_1-2" data-name="Warstwa 1">
    <g>
      <rect class="cls-1" x=".25" y=".25" width="56" height="56" rx="1.63" ry="1.63"/>
      <g>
        <polygon class="cls-2" points="28.25 4.31 5.3 15.61 5.3 18.17 5.3 20.73 28.25 20.73 51.2 20.73 51.2 18.17 51.2 15.61 28.25 4.31"/>
        <rect class="cls-2" x="37.27" y="25.84" width="7.37" height="16.5" transform="translate(81.92 68.18) rotate(-180)"/>
        <path class="cls-2" d="M28.25,46.59H3.48c-.82,0-1.48.67-1.48,1.49v2.93h52.51v-2.93c0-.82-.66-1.49-1.48-1.49h-24.77Z"/>
        <path class="cls-2" d="M28.25,42.34H9.46c-.65,0-1.17.53-1.17,1.18v3.07h39.93v-3.07c0-.65-.53-1.18-1.18-1.18h-18.79Z"/>
        <polygon class="cls-2" points="28.25 25.84 24.57 25.84 24.57 42.34 28.25 42.34 31.93 42.34 31.93 25.84 28.25 25.84"/>
        <rect class="cls-2" x="11.86" y="25.84" width="7.37" height="16.5"/>
        <path class="cls-2" d="M28.25,20.73H9.3v3.22c0,1.04.84,1.89,1.88,1.89h34.14c1.04,0,1.88-.85,1.88-1.89v-3.22h-18.95Z"/>
        <polygon class="cls-4" points="33.37 7.97 15.54 16.75 15.54 18.74 15.54 20.73 33.37 20.73 51.2 20.73 51.2 18.74 51.2 16.75 33.37 7.97"/>
        <rect class="cls-4" x="14.47" y="26.04" width="4.75" height="16.1" transform="translate(33.7 68.18) rotate(-180)"/>
        <rect class="cls-4" x="27.18" y="26.04" width="4.75" height="16.1" transform="translate(59.12 68.18) rotate(-180)"/>
        <rect class="cls-4" x="39.89" y="26.04" width="4.75" height="16.1" transform="translate(84.53 68.18) rotate(-180)"/>
        <path class="cls-4" d="M28.25,46.59H3.52c-.84,0-1.52.69-1.52,1.53v2.89h52.51v-3.08c0-.74-.6-1.34-1.33-1.34h-24.92Z"/>
        <path class="cls-3" d="M28.25,42.34H9.48c-.66,0-1.2.54-1.2,1.2v2.85h39.93v-2.85c0-.66-.54-1.2-1.2-1.2h-18.77Z"/>
        <path class="cls-3" d="M28.25,20.73H9.3v3.1c0,1.11.9,2.01,2,2.01h33.9c1.1,0,2-.9,2-2.01v-3.1h-18.95Z"/>
        <path class="cls-2" d="M31.28,12.64c0-1.67-1.32-3.04-2.98-3.09h0s-.03,0-.05,0c-.02,0-.03,0-.05,0h0c-1.65.06-2.98,1.42-2.98,3.09s1.32,3.04,2.98,3.09h0s.03,0,.05,0c.02,0,.03,0,.05,0h0c1.65-.06,2.98-1.42,2.98-3.09Z"/>
        <path class="cls-3" d="M28.2,15.74s.1,0,.1,0c1.65-.05,2.98-1.42,2.98-3.09l-3.08,3.09Z"/>
      </g>
    </g>
  </g>
</svg>